<?xml version="1.0" encoding="UTF-8" standalone="no"?>
<svg
   version="1.1"
   width="33cm"
   height="3cm"
   viewBox="0 0 33 3"
   id="svg876"
   sodipodi:docname="Abstandsverhältnisse des Sonnensystems.svg"
   inkscape:version="1.1.2 (b8e25be8, 2022-02-05)"
   xmlns:inkscape="http://www.inkscape.org/namespaces/inkscape"
   xmlns:sodipodi="http://sodipodi.sourceforge.net/DTD/sodipodi-0.dtd"
   xmlns="http://www.w3.org/2000/svg"
   xmlns:svg="http://www.w3.org/2000/svg"
   xmlns:rdf="http://www.w3.org/1999/02/22-rdf-syntax-ns#"
   xmlns:dc="http://purl.org/dc/elements/1.1/">
  <defs
     id="defs880" />
  <sodipodi:namedview
     id="namedview878"
     pagecolor="#ffffff"
     bordercolor="#666666"
     borderopacity="1.0"
     inkscape:pageshadow="2"
     inkscape:pageopacity="0.0"
     inkscape:pagecheckerboard="0"
     inkscape:document-units="cm"
     showgrid="false"
     inkscape:zoom="3.2764031"
     inkscape:cx="1199.6387"
     inkscape:cy="64.857709"
     inkscape:window-width="1280"
     inkscape:window-height="747"
     inkscape:window-x="28"
     inkscape:window-y="25"
     inkscape:window-maximized="0"
     inkscape:current-layer="svg876" />
  <title
     id="title824">Abstandsverhältnisse des Sonnensystems</title>
  <desc
     id="desc826">Maßstäbliche Darstellung der Abstandsverhältnisse der Planetenbahnen</desc>
  <metadata
     id="metadata828">
    <!-- Metainformationen mit RDF und Dublin-Core -->
    <rdf:RDF>
      <rdf:Description>
        <dc:creator>Stefan Knauf</dc:creator>
        <dc:created>2013-08-16</dc:created>
        <dc:language>de</dc:language>
      </rdf:Description>
    </rdf:RDF>
  </metadata>
  <!--Inhalt der Datei: -->
  <rect
     x="0"
     y="0"
     width="33"
     height="3"
     fill="black"
     id="rect830" />
  <!-- Sonne: -->
  <circle
     cx="32.107143"
     cy="1.0008142"
     r="0.2"
     fill="#ffff00"
     id="circle832-2"
     style="stroke-width:2" />
  <!-- Merkur: -->
  <circle
     cx="31.6129"
     cy="1"
     r="0.1"
     fill="#808080"
     id="circle834"
     style="stroke-width:2" />
  <polyline
     stroke="#666666"
     stroke-width="0.02"
     points="31.533,1.1 31.533,1.2 31.693,1.2 31.693,1.1"
     id="polyline836"
     transform="translate(0,0.05291667)"
     style="stroke:#ffffff;stroke-opacity:1;stroke-width:0.04;stroke-miterlimit:4;stroke-dasharray:none" />
  <!-- Venus: -->
  <circle
     cx="31.277"
     cy="1"
     r="0.1"
     fill="#fffaf0"
     id="circle838"
     style="stroke-width:2" />
  <polyline
     stroke="#666666"
     stroke-width="0.02"
     points="31.272,1.1 31.272,1.2 31.282,1.2 31.282,1.1"
     id="polyline840"
     transform="translate(0,0.05291667)"
     style="stroke:#ffffff;stroke-opacity:1;stroke-width:0.04;stroke-miterlimit:4;stroke-dasharray:none" />
  <!-- Erde: -->
  <circle
     cx="31"
     cy="1"
     r="0.1"
     fill="#0000ff"
     id="circle842"
     style="stroke-width:2;fill:#009cff;fill-opacity:1" />
  <polyline
     stroke="#666666"
     stroke-width="0.02"
     points="30.983,1.1 30.983,1.2 31.017,1.2 31.017,1.1"
     id="polyline844"
     transform="translate(0,0.05291667)"
     style="stroke:#ffffff;stroke-opacity:1;stroke-width:0.04;stroke-miterlimit:4;stroke-dasharray:none" />
  <!-- Mars: -->
  <circle
     cx="30.476"
     cy="1"
     r="0.1"
     fill="#ff0000"
     id="circle846"
     style="stroke-width:2;fill:#ff7f2a" />
  <polyline
     stroke="#666666"
     stroke-width="0.02"
     points="30.334,1.1 30.334,1.2 30.619,1.2 30.619,1.1"
     id="polyline848"
     transform="translate(0,0.05291667)"
     style="stroke:#ffffff;stroke-opacity:1;stroke-width:0.04;stroke-miterlimit:4;stroke-dasharray:none" />
  <g
     aria-label="Inner
"
     id="text850"
     style="font-size:0.529167px;font-family:Lato;-inkscape-font-specification:Lato;text-anchor:middle;fill:#ffffff">
    <path
       d="m 30.519501,1.7387211 h -0.05133 V 1.359573 h 0.05133 z"
       id="path17419" />
    <path
       d="M 30.613502,1.7387211 V 1.470698 h 0.02805 q 0.01005,0 0.0127,0.00979 l 0.0037,0.029104 q 0.01746,-0.019315 0.03889,-0.031221 0.0217,-0.011906 0.05001,-0.011906 0.02196,0 0.03863,0.00741 0.01693,0.00714 0.02805,0.020637 0.01138,0.013229 0.0172,0.032015 0.0058,0.018785 0.0058,0.04154 v 0.1706563 h -0.0471 V 1.5680648 q 0,-0.030427 -0.01402,-0.047096 -0.01376,-0.016933 -0.04233,-0.016933 -0.0209,0 -0.03916,0.010054 -0.01799,0.010054 -0.03334,0.027252 v 0.1973793 z"
       id="path17421" />
    <path
       d="M 30.908058,1.7387211 V 1.470698 h 0.02805 q 0.01005,0 0.0127,0.00979 l 0.0037,0.029104 q 0.01746,-0.019315 0.03889,-0.031221 0.0217,-0.011906 0.05001,-0.011906 0.02196,0 0.03863,0.00741 0.01693,0.00714 0.02805,0.020637 0.01138,0.013229 0.0172,0.032015 0.0058,0.018785 0.0058,0.04154 v 0.1706563 h -0.0471 V 1.5680648 q 0,-0.030427 -0.01402,-0.047096 -0.01376,-0.016933 -0.04233,-0.016933 -0.0209,0 -0.03916,0.010054 -0.01799,0.010054 -0.03334,0.027252 v 0.1973793 z"
       id="path17423" />
    <path
       d="m 31.308712,1.4664647 q 0.02408,0 0.04445,0.0082 0.02037,0.00794 0.03519,0.023283 0.01482,0.015081 0.02302,0.037571 0.0085,0.022225 0.0085,0.0508 0,0.011112 -0.0024,0.014817 -0.0024,0.0037 -0.009,0.0037 h -0.178329 q 5.29e-4,0.0254 0.0069,0.044185 0.0063,0.018786 0.01746,0.031486 0.01111,0.012435 0.02646,0.018785 0.01534,0.00609 0.03439,0.00609 0.01773,0 0.03043,-0.00397 0.01297,-0.00423 0.02223,-0.009 0.0093,-0.00476 0.01535,-0.00873 0.0063,-0.00423 0.01085,-0.00423 0.0058,0 0.009,0.0045 l 0.01323,0.017198 q -0.0087,0.010583 -0.0209,0.018521 -0.01217,0.00767 -0.02619,0.0127 -0.01376,0.00503 -0.02858,0.00741 -0.01482,0.00265 -0.02937,0.00265 -0.02778,0 -0.05133,-0.00926 -0.02328,-0.00953 -0.04048,-0.027517 -0.01693,-0.018256 -0.02646,-0.044979 -0.0095,-0.026723 -0.0095,-0.061383 0,-0.028046 0.0085,-0.052388 0.0087,-0.024342 0.02487,-0.042069 0.01614,-0.017992 0.03942,-0.028046 0.02328,-0.010319 0.05239,-0.010319 z m 0.0011,0.03466 q -0.03413,0 -0.05371,0.019844 -0.01958,0.019579 -0.02434,0.054504 h 0.145786 q 0,-0.016404 -0.0045,-0.029898 -0.0045,-0.013758 -0.01323,-0.023548 -0.0087,-0.010054 -0.02143,-0.015346 -0.01243,-0.00556 -0.02858,-0.00556 z"
       id="path17425" />
    <path
       d="M 31.4796,1.7387211 V 1.470698 h 0.02699 q 0.0077,0 0.01058,0.00291 0.0029,0.00291 0.004,0.010054 l 0.0032,0.041804 q 0.01376,-0.028046 0.03387,-0.043656 0.02037,-0.015875 0.04763,-0.015875 0.01111,0 0.02011,0.00265 0.009,0.00238 0.01667,0.00688 l -0.0061,0.03519 q -0.0019,0.00661 -0.0082,0.00661 -0.0037,0 -0.01138,-0.00238 -0.0077,-0.00265 -0.02143,-0.00265 -0.02461,0 -0.04127,0.014288 -0.0164,0.014288 -0.02752,0.04154 v 0.1706563 z"
       id="path17427" />
  </g>
  <!-- Jupiter: -->
  <circle
     cx="26.797001"
     cy="1"
     r="0.2"
     fill="#f4a460"
     id="circle852"
     style="stroke-width:4" />
  <polyline
     stroke="#666666"
     stroke-width="0.02"
     points="26.54,1.1 26.54,1.2 27.05,1.2 27.05,1.1"
     id="polyline854"
     transform="translate(0,0.10583334)"
     style="stroke:#ffffff;stroke-opacity:1;stroke-width:0.04;stroke-miterlimit:4;stroke-dasharray:none" />
  <g
     aria-label="Jupiter"
     id="text856"
     style="font-size:0.529167px;font-family:Lato;-inkscape-font-specification:Lato;text-anchor:middle;fill:#ffffff">
    <path
       d="m 26.163476,1.6146315 q 0,0.03175 -0.0079,0.056885 -0.0077,0.025135 -0.02302,0.042598 -0.01508,0.017198 -0.03731,0.026458 -0.02222,0.00926 -0.05106,0.00926 -0.02566,0 -0.05345,-0.00741 5.3e-4,-0.00767 0.0013,-0.015081 7.94e-4,-0.00767 0.0016,-0.015081 5.29e-4,-0.0045 0.0032,-0.00714 0.0029,-0.00291 0.0085,-0.00291 0.0048,0 0.0127,0.00238 0.0079,0.00238 0.02117,0.00238 0.01746,0 0.03096,-0.00529 0.01376,-0.00529 0.02302,-0.016404 0.0095,-0.011113 0.01429,-0.02831 0.005,-0.017462 0.005,-0.041275 V 1.3664522 h 0.05106 z"
       id="path17430" />
    <path
       d="m 26.288815,1.4775773 v 0.1709209 q 0,0.030427 0.01402,0.047096 0.01402,0.016669 0.04233,0.016669 0.02064,0 0.03889,-0.00979 0.01826,-0.00979 0.0336,-0.027252 V 1.4775773 h 0.0471 v 0.268023 h -0.02805 q -0.01005,0 -0.0127,-0.00979 l -0.0037,-0.02884 q -0.01746,0.019315 -0.03916,0.031221 -0.0217,0.011642 -0.04974,0.011642 -0.02196,0 -0.03889,-0.00714 -0.01667,-0.00741 -0.02805,-0.020638 -0.01138,-0.013229 -0.0172,-0.032015 -0.0056,-0.018785 -0.0056,-0.04154 V 1.4775773 Z"
       id="path17432" />
    <path
       d="M 26.542625,1.8363525 V 1.4775773 h 0.02804 q 0.01006,0 0.0127,0.00979 l 0.004,0.03175 q 0.0172,-0.020902 0.03916,-0.033602 0.02223,-0.0127 0.05107,-0.0127 0.02302,0 0.0418,0.009 0.01879,0.00873 0.03201,0.026194 0.01323,0.017198 0.02037,0.042863 0.0071,0.025665 0.0071,0.059002 0,0.029633 -0.0079,0.055298 -0.0079,0.0254 -0.02275,0.044185 -0.01482,0.018521 -0.03651,0.029369 -0.02143,0.010583 -0.04842,0.010583 -0.02487,0 -0.0426,-0.0082 -0.01746,-0.0082 -0.03096,-0.023283 v 0.1185334 z m 0.119327,-0.3254377 q -0.02302,0 -0.04048,0.010583 -0.0172,0.010583 -0.03175,0.029898 V 1.681042 q 0.01297,0.017463 0.02831,0.024606 0.01561,0.00714 0.03466,0.00714 0.03731,0 0.05741,-0.026723 0.02011,-0.026723 0.02011,-0.0762 0,-0.026194 -0.0048,-0.044979 -0.0045,-0.018785 -0.01323,-0.030692 -0.0087,-0.012171 -0.02143,-0.017727 -0.0127,-0.00556 -0.02884,-0.00556 z"
       id="path17434" />
    <path
       d="m 26.887501,1.4775773 v 0.268023 h -0.0471 v -0.268023 z m 0.01058,-0.084138 q 0,0.00688 -0.0029,0.012965 -0.0026,0.00582 -0.0074,0.010583 -0.0045,0.0045 -0.01058,0.00714 -0.0061,0.00265 -0.01297,0.00265 -0.0069,0 -0.01296,-0.00265 -0.0058,-0.00265 -0.01058,-0.00714 -0.0045,-0.00476 -0.0071,-0.010583 -0.0026,-0.00609 -0.0026,-0.012965 0,-0.00688 0.0026,-0.012965 0.0026,-0.00635 0.0071,-0.010848 0.0048,-0.00476 0.01058,-0.00741 0.0061,-0.00265 0.01296,-0.00265 0.0069,0 0.01297,0.00265 0.0061,0.00265 0.01058,0.00741 0.0048,0.0045 0.0074,0.010848 0.0029,0.00609 0.0029,0.012965 z"
       id="path17436" />
    <path
       d="m 27.051733,1.7498337 q -0.03175,0 -0.04895,-0.017727 -0.01693,-0.017727 -0.01693,-0.051065 V 1.5170002 h -0.03228 q -0.0042,0 -0.0071,-0.00238 -0.0029,-0.00265 -0.0029,-0.00794 V 1.487896 l 0.04392,-0.00556 0.01085,-0.082815 q 5.29e-4,-0.00397 0.0034,-0.00635 0.0029,-0.00265 0.0074,-0.00265 h 0.02381 v 0.09234 h 0.07673 v 0.034131 h -0.07673 V 1.677867 q 0,0.016933 0.0082,0.025135 0.0082,0.0082 0.02117,0.0082 0.0074,0 0.0127,-0.00185 0.0056,-0.00212 0.0095,-0.0045 0.004,-0.00238 0.0066,-0.00423 0.0029,-0.00212 0.005,-0.00212 0.0037,0 0.0066,0.0045 l 0.01376,0.02249 q -0.01217,0.011377 -0.02937,0.017992 -0.0172,0.00635 -0.03545,0.00635 z"
       id="path17438" />
    <path
       d="m 27.274008,1.4733439 q 0.02408,0 0.04445,0.0082 0.02037,0.00794 0.03519,0.023283 0.01482,0.015081 0.02302,0.037571 0.0085,0.022225 0.0085,0.0508 0,0.011113 -0.0024,0.014817 -0.0024,0.0037 -0.009,0.0037 h -0.17833 q 5.3e-4,0.0254 0.0069,0.044185 0.0064,0.018786 0.01746,0.031486 0.01111,0.012435 0.02646,0.018785 0.01535,0.00609 0.0344,0.00609 0.01773,0 0.03043,-0.00397 0.01296,-0.00423 0.02222,-0.009 0.0093,-0.00476 0.01535,-0.00873 0.0064,-0.00423 0.01085,-0.00423 0.0058,0 0.009,0.0045 l 0.01323,0.017198 q -0.0087,0.010583 -0.0209,0.018521 -0.01217,0.00767 -0.02619,0.0127 -0.01376,0.00503 -0.02858,0.00741 -0.01482,0.00265 -0.02937,0.00265 -0.02778,0 -0.05133,-0.00926 -0.02328,-0.00953 -0.04048,-0.027517 -0.01693,-0.018256 -0.02646,-0.044979 -0.0095,-0.026723 -0.0095,-0.061383 0,-0.028046 0.0085,-0.052388 0.0087,-0.024342 0.02487,-0.042069 0.01614,-0.017992 0.03942,-0.028046 0.02328,-0.010319 0.05239,-0.010319 z m 0.0011,0.03466 q -0.03413,0 -0.05371,0.019844 -0.01958,0.019579 -0.02434,0.054504 h 0.145785 q 0,-0.016404 -0.0045,-0.029898 -0.0045,-0.013758 -0.01323,-0.023548 -0.0087,-0.010054 -0.02143,-0.015346 -0.01243,-0.00556 -0.02858,-0.00556 z"
       id="path17440" />
    <path
       d="m 27.444896,1.7456003 v -0.268023 h 0.02699 q 0.0077,0 0.01058,0.00291 0.0029,0.00291 0.004,0.010054 l 0.0032,0.041804 q 0.01376,-0.028046 0.03387,-0.043656 0.02037,-0.015875 0.04763,-0.015875 0.01111,0 0.02011,0.00265 0.009,0.00238 0.01667,0.00688 l -0.0061,0.03519 q -0.0019,0.00661 -0.0082,0.00661 -0.0037,0 -0.01138,-0.00238 -0.0077,-0.00265 -0.02143,-0.00265 -0.02461,0 -0.04128,0.014288 -0.0164,0.014288 -0.02752,0.04154 v 0.1706563 z"
       id="path17442" />
  </g>
  <!-- Saturn: -->
  <circle
     cx="22.417"
     cy="1"
     r="0.2"
     fill="#cd853f"
     id="circle858"
     style="stroke-width:4" />
  <polyline
     stroke="#666666"
     stroke-width="0.02"
     points="21.876,1.1 21.876,1.2 22.959,1.2 22.959,1.1"
     id="polyline860"
     transform="translate(0,0.10583334)"
     style="stroke:#ffffff;stroke-opacity:1;stroke-width:0.04;stroke-miterlimit:4;stroke-dasharray:none" />
  <g
     aria-label="Saturn"
     id="text862"
     style="font-size:0.529167px;font-family:Lato;-inkscape-font-specification:Lato;text-anchor:middle;fill:#ffffff">
    <path
       d="m 21.883128,1.423073 q -0.0024,0.00397 -0.005,0.00609 -0.0026,0.00185 -0.0069,0.00185 -0.0045,0 -0.01058,-0.0045 -0.0058,-0.0045 -0.01508,-0.00979 -0.009,-0.00556 -0.02196,-0.010054 -0.0127,-0.0045 -0.03096,-0.0045 -0.0172,0 -0.03043,0.00476 -0.01323,0.0045 -0.02222,0.012436 -0.0087,0.00794 -0.01323,0.018785 -0.0045,0.010583 -0.0045,0.023019 0,0.015875 0.0077,0.026458 0.0079,0.010319 0.02064,0.017727 0.01296,0.00741 0.0291,0.012965 0.0164,0.00529 0.03334,0.011113 0.0172,0.00582 0.03334,0.013229 0.0164,0.00714 0.0291,0.018256 0.01297,0.011113 0.02064,0.027252 0.0079,0.01614 0.0079,0.039688 0,0.024871 -0.0085,0.046831 -0.0085,0.021696 -0.02487,0.037835 -0.01614,0.01614 -0.03995,0.0254 -0.02355,0.00926 -0.05371,0.00926 -0.03678,0 -0.0672,-0.013229 -0.03016,-0.013494 -0.05159,-0.036248 l 0.01482,-0.024342 q 0.0021,-0.00291 0.005,-0.00476 0.0032,-0.00212 0.0069,-0.00212 0.0056,0 0.0127,0.00609 0.0071,0.00582 0.01773,0.012965 0.01085,0.00714 0.02593,0.013229 0.01535,0.00582 0.03731,0.00582 0.01826,0 0.03254,-0.00503 0.01429,-0.00503 0.02408,-0.014023 0.01005,-0.00926 0.01534,-0.021961 0.0053,-0.0127 0.0053,-0.02831 0,-0.017198 -0.0079,-0.028046 -0.0077,-0.011112 -0.02037,-0.018521 -0.0127,-0.00741 -0.02911,-0.012435 -0.01614,-0.00529 -0.03334,-0.010583 -0.01693,-0.00556 -0.03334,-0.0127 -0.01614,-0.00714 -0.02884,-0.018521 -0.0127,-0.011377 -0.02064,-0.02831 -0.0077,-0.017198 -0.0077,-0.042333 0,-0.020108 0.0077,-0.038894 0.0079,-0.018785 0.02276,-0.033338 0.01482,-0.014552 0.03651,-0.023283 0.02196,-0.00873 0.05027,-0.00873 0.03175,0 0.05794,0.010054 0.02619,0.010054 0.04577,0.029104 z"
       id="path17445" />
    <path
       d="m 22.158452,1.7429545 h -0.0209 q -0.0069,0 -0.01111,-0.00212 -0.0042,-0.00212 -0.0056,-0.009 l -0.0053,-0.024871 q -0.01058,0.00953 -0.02064,0.017198 -0.01005,0.00741 -0.02117,0.0127 -0.01111,0.00503 -0.02381,0.00767 -0.01244,0.00265 -0.02778,0.00265 -0.01561,0 -0.02937,-0.00423 -0.01349,-0.0045 -0.02355,-0.013229 -0.01005,-0.00873 -0.01614,-0.02196 -0.0058,-0.013494 -0.0058,-0.03175 0,-0.015875 0.0087,-0.030427 0.0087,-0.014817 0.02805,-0.026194 0.01958,-0.011377 0.05106,-0.018521 0.03149,-0.00741 0.07699,-0.00847 v -0.020902 q 0,-0.031221 -0.01349,-0.047096 -0.01323,-0.01614 -0.03942,-0.01614 -0.0172,0 -0.0291,0.0045 -0.01164,0.00423 -0.02037,0.00979 -0.0085,0.00529 -0.01482,0.00979 -0.0061,0.00423 -0.01217,0.00423 -0.0048,0 -0.0085,-0.00238 -0.0034,-0.00265 -0.0056,-0.00635 l -0.0085,-0.015081 q 0.02222,-0.021431 0.04789,-0.032015 0.02566,-0.010583 0.05689,-0.010583 0.02249,0 0.03995,0.00741 0.01746,0.00741 0.02937,0.020638 0.01191,0.013229 0.01799,0.032015 0.0061,0.018785 0.0061,0.041275 z m -0.122237,-0.02884 q 0.01243,0 0.02275,-0.00238 0.01032,-0.00265 0.01931,-0.00714 0.0093,-0.00476 0.01746,-0.011377 0.0085,-0.00661 0.0164,-0.015081 v -0.055827 q -0.03254,0.00106 -0.0553,0.00529 -0.02275,0.00397 -0.03704,0.010583 -0.01429,0.00661 -0.0209,0.01561 -0.0064,0.009 -0.0064,0.020108 0,0.010583 0.0034,0.018256 0.0034,0.00767 0.0093,0.0127 0.0058,0.00476 0.01376,0.00714 0.0079,0.00212 0.0172,0.00212 z"
       id="path17447" />
    <path
       d="m 22.311547,1.7471878 q -0.03175,0 -0.04895,-0.017727 -0.01693,-0.017727 -0.01693,-0.051065 V 1.5143544 h -0.03228 q -0.0042,0 -0.0071,-0.00238 -0.0029,-0.00265 -0.0029,-0.00794 v -0.018785 l 0.04392,-0.00556 0.01085,-0.082815 q 5.29e-4,-0.00397 0.0034,-0.00635 0.0029,-0.00265 0.0074,-0.00265 h 0.02381 v 0.09234 h 0.07673 v 0.034131 h -0.07673 v 0.1608667 q 0,0.016933 0.0082,0.025135 0.0082,0.0082 0.02117,0.0082 0.0074,0 0.0127,-0.00185 0.0056,-0.00212 0.0095,-0.0045 0.004,-0.00238 0.0066,-0.00423 0.0029,-0.00212 0.005,-0.00212 0.0037,0 0.0066,0.0045 l 0.01376,0.02249 q -0.01217,0.011377 -0.02937,0.017992 -0.0172,0.00635 -0.03545,0.00635 z"
       id="path17449" />
    <path
       d="m 22.46847,1.4749314 v 0.1709209 q 0,0.030427 0.01402,0.047096 0.01402,0.016669 0.04233,0.016669 0.02064,0 0.03889,-0.00979 0.01826,-0.00979 0.0336,-0.027252 V 1.4749314 h 0.0471 v 0.2680231 h -0.02805 q -0.01005,0 -0.0127,-0.00979 l -0.0037,-0.02884 q -0.01746,0.019315 -0.03916,0.031221 -0.0217,0.011642 -0.04974,0.011642 -0.02196,0 -0.03889,-0.00714 -0.01667,-0.00741 -0.02805,-0.020638 -0.01138,-0.013229 -0.0172,-0.032015 -0.0056,-0.018785 -0.0056,-0.04154 V 1.4749314 Z"
       id="path17451" />
    <path
       d="M 22.72228,1.7429545 V 1.4749314 h 0.02699 q 0.0077,0 0.01058,0.00291 0.0029,0.00291 0.004,0.010054 l 0.0032,0.041804 q 0.01376,-0.028046 0.03387,-0.043656 0.02037,-0.015875 0.04763,-0.015875 0.01111,0 0.02011,0.00265 0.009,0.00238 0.01667,0.00688 l -0.0061,0.03519 q -0.0019,0.00661 -0.0082,0.00661 -0.0037,0 -0.01138,-0.00238 -0.0077,-0.00265 -0.02143,-0.00265 -0.02461,0 -0.04127,0.014288 -0.0164,0.014288 -0.02752,0.04154 v 0.1706564 z"
       id="path17453" />
    <path
       d="M 22.935187,1.7429545 V 1.4749314 h 0.02805 q 0.01005,0 0.0127,0.00979 l 0.0037,0.029104 q 0.01746,-0.019315 0.03889,-0.031221 0.0217,-0.011906 0.05001,-0.011906 0.02196,0 0.03863,0.00741 0.01693,0.00714 0.02805,0.020638 0.01138,0.013229 0.0172,0.032015 0.0058,0.018786 0.0058,0.04154 v 0.1706564 h -0.0471 V 1.5722981 q 0,-0.030427 -0.01402,-0.047096 -0.01376,-0.016933 -0.04233,-0.016933 -0.0209,0 -0.03916,0.010054 -0.01799,0.010054 -0.03334,0.027252 v 0.1973793 z"
       id="path17455" />
  </g>
  <!-- Uranus: -->
  <circle
     cx="12.799"
     cy="1"
     r="0.2"
     fill="#87ceff"
     id="circle864"
     style="stroke-width:4" />
  <polyline
     stroke="#666666"
     stroke-width="0.02"
     points="11.922,1.1 11.922,1.2 13.676,1.2 13.676,1.1"
     id="polyline866"
     transform="translate(0,0.10583334)"
     style="stroke:#ffffff;stroke-opacity:1;stroke-width:0.04;stroke-miterlimit:4;stroke-dasharray:none" />
  <g
     aria-label="Uranus"
     id="text868"
     style="font-size:0.529167px;font-family:Lato;-inkscape-font-specification:Lato;text-anchor:middle;fill:#ffffff">
    <path
       d="m 12.154218,1.6979753 q 0.02355,0 0.04207,-0.00794 0.01852,-0.00794 0.03122,-0.022225 0.01296,-0.014288 0.01958,-0.034131 0.0069,-0.019844 0.0069,-0.043656 V 1.359573 h 0.05106 v 0.2304522 q 0,0.032808 -0.01058,0.060854 -0.01032,0.028046 -0.0299,0.048683 -0.01931,0.020373 -0.04736,0.032015 -0.02805,0.011642 -0.06297,0.011642 -0.03492,0 -0.06297,-0.011642 -0.02805,-0.011642 -0.04763,-0.032015 -0.01958,-0.020638 -0.03016,-0.048683 -0.01032,-0.028046 -0.01032,-0.060854 V 1.359573 h 0.05107 v 0.2301876 q 0,0.023813 0.0066,0.043656 0.0069,0.019844 0.01958,0.034131 0.01296,0.014288 0.03149,0.02249 0.01879,0.00794 0.04233,0.00794 z"
       id="path17458" />
    <path
       d="M 12.385977,1.7387211 V 1.470698 h 0.02699 q 0.0077,0 0.01058,0.00291 0.0029,0.00291 0.004,0.010054 l 0.0032,0.041804 q 0.01376,-0.028046 0.03387,-0.043656 0.02037,-0.015875 0.04763,-0.015875 0.01111,0 0.02011,0.00265 0.009,0.00238 0.01667,0.00688 l -0.0061,0.03519 q -0.0019,0.00661 -0.0082,0.00661 -0.0037,0 -0.01138,-0.00238 -0.0077,-0.00265 -0.02143,-0.00265 -0.02461,0 -0.04127,0.014288 -0.0164,0.014288 -0.02752,0.04154 v 0.1706563 z"
       id="path17460" />
    <path
       d="m 12.785399,1.7387211 h -0.0209 q -0.0069,0 -0.01111,-0.00212 -0.0042,-0.00212 -0.0056,-0.009 l -0.0053,-0.024871 q -0.01058,0.00953 -0.02064,0.017198 -0.01005,0.00741 -0.02117,0.0127 -0.01111,0.00503 -0.02381,0.00767 -0.01243,0.00265 -0.02778,0.00265 -0.01561,0 -0.02937,-0.00423 -0.01349,-0.0045 -0.02355,-0.013229 -0.01005,-0.00873 -0.01614,-0.021961 -0.0058,-0.013494 -0.0058,-0.03175 0,-0.015875 0.0087,-0.030427 0.0087,-0.014817 0.02805,-0.026194 0.01958,-0.011377 0.05106,-0.018521 0.03148,-0.00741 0.07699,-0.00847 V 1.567271 q 0,-0.031221 -0.01349,-0.047096 -0.01323,-0.01614 -0.03942,-0.01614 -0.0172,0 -0.0291,0.0045 -0.01164,0.00423 -0.02037,0.00979 -0.0085,0.00529 -0.01482,0.00979 -0.0061,0.00423 -0.01217,0.00423 -0.0048,0 -0.0085,-0.00238 -0.0034,-0.00265 -0.0056,-0.00635 l -0.0085,-0.015081 q 0.02223,-0.021431 0.04789,-0.032015 0.02567,-0.010583 0.05689,-0.010583 0.02249,0 0.03995,0.00741 0.01746,0.00741 0.02937,0.020638 0.01191,0.013229 0.01799,0.032015 0.0061,0.018785 0.0061,0.041275 z m -0.122238,-0.02884 q 0.01243,0 0.02275,-0.00238 0.01032,-0.00265 0.01932,-0.00714 0.0093,-0.00476 0.01746,-0.011377 0.0085,-0.00661 0.0164,-0.015081 v -0.055827 q -0.03254,0.00106 -0.0553,0.00529 -0.02275,0.00397 -0.03704,0.010583 -0.01429,0.00661 -0.0209,0.01561 -0.0063,0.009 -0.0063,0.020108 0,0.010583 0.0034,0.018256 0.0034,0.00767 0.0093,0.0127 0.0058,0.00476 0.01376,0.00714 0.0079,0.00212 0.0172,0.00212 z"
       id="path17462" />
    <path
       d="M 12.857266,1.7387211 V 1.470698 h 0.02805 q 0.01005,0 0.0127,0.00979 l 0.0037,0.029104 q 0.01746,-0.019315 0.03889,-0.031221 0.0217,-0.011906 0.05001,-0.011906 0.02196,0 0.03863,0.00741 0.01693,0.00714 0.02805,0.020637 0.01138,0.013229 0.0172,0.032015 0.0058,0.018785 0.0058,0.04154 v 0.1706563 h -0.0471 V 1.5680648 q 0,-0.030427 -0.01402,-0.047096 -0.01376,-0.016933 -0.04233,-0.016933 -0.0209,0 -0.03916,0.010054 -0.01799,0.010054 -0.03334,0.027252 v 0.1973793 z"
       id="path17464" />
    <path
       d="m 13.192568,1.470698 v 0.170921 q 0,0.030427 0.01402,0.047096 0.01402,0.016669 0.04233,0.016669 0.02064,0 0.03889,-0.00979 0.01826,-0.00979 0.0336,-0.027252 V 1.470698 h 0.0471 v 0.2680231 h -0.02805 q -0.01005,0 -0.0127,-0.00979 l -0.0037,-0.02884 q -0.01746,0.019315 -0.03916,0.031221 -0.0217,0.011642 -0.04974,0.011642 -0.02196,0 -0.03889,-0.00714 -0.01667,-0.00741 -0.02805,-0.020638 -0.01138,-0.013229 -0.0172,-0.032015 -0.0056,-0.018785 -0.0056,-0.04154 V 1.470698 Z"
       id="path17466" />
    <path
       d="m 13.599836,1.5148835 q -0.0032,0.00582 -0.0098,0.00582 -0.004,0 -0.009,-0.00291 -0.005,-0.00291 -0.01244,-0.00635 -0.0071,-0.0037 -0.0172,-0.00661 -0.01005,-0.00317 -0.02381,-0.00317 -0.01191,0 -0.02143,0.00317 -0.0095,0.00291 -0.0164,0.0082 -0.0066,0.00529 -0.01032,0.012435 -0.0034,0.00688 -0.0034,0.015081 0,0.010319 0.0058,0.017198 0.0061,0.00688 0.01587,0.011906 0.0098,0.00503 0.02223,0.009 0.01243,0.0037 0.0254,0.0082 0.01323,0.00423 0.02567,0.00953 0.01243,0.00529 0.02223,0.013229 0.0098,0.00794 0.01561,0.019579 0.0061,0.011377 0.0061,0.027517 0,0.018521 -0.0066,0.034396 -0.0066,0.01561 -0.01958,0.027252 -0.01296,0.011377 -0.03175,0.017992 -0.01879,0.00661 -0.04339,0.00661 -0.02805,0 -0.0508,-0.009 -0.02275,-0.00926 -0.03863,-0.023548 l 0.01111,-0.017992 q 0.0021,-0.00344 0.005,-0.00529 0.0029,-0.00185 0.0077,-0.00185 0.0048,0 0.01005,0.0037 0.0053,0.0037 0.0127,0.0082 0.0077,0.0045 0.01826,0.0082 0.01085,0.0037 0.02699,0.0037 0.01376,0 0.02408,-0.00344 0.01032,-0.0037 0.0172,-0.00979 0.0069,-0.00609 0.01005,-0.014023 0.0034,-0.00794 0.0034,-0.016933 0,-0.011113 -0.0061,-0.018256 -0.0058,-0.00741 -0.01561,-0.012435 -0.0098,-0.00529 -0.02249,-0.009 -0.01244,-0.00397 -0.02567,-0.0082 -0.01297,-0.00423 -0.02567,-0.00953 -0.01243,-0.00556 -0.02223,-0.013758 -0.0098,-0.0082 -0.01587,-0.020108 -0.0058,-0.012171 -0.0058,-0.029369 0,-0.015346 0.0064,-0.029369 0.0063,-0.014288 0.01852,-0.024871 0.01217,-0.010848 0.0299,-0.017198 0.01773,-0.00635 0.04048,-0.00635 0.02646,0 0.04736,0.00847 0.02117,0.0082 0.03651,0.022754 z"
       id="path17468" />
  </g>
  <!-- Neptun: -->
  <circle
     cx="1.9529999"
     cy="1"
     r="0.2"
     fill="#1874cd"
     id="circle870"
     style="stroke-width:4" />
  <polyline
     stroke="#666666"
     stroke-width="0.02"
     points="1.615,1.1 1.615,1.2 2.291,1.2 2.291,1.1"
     id="polyline872"
     transform="translate(0,0.10583334)"
     style="stroke:#ffffff;stroke-opacity:1;stroke-width:0.04;stroke-miterlimit:4;stroke-dasharray:none" />
  <g
     aria-label="Neptune"
     id="text874"
     style="font-size:0.529167px;font-family:Lato;-inkscape-font-specification:Lato;text-anchor:middle;fill:#ffffff">
    <path
       d="m 1.0090198,1.359573 q 0.00688,0 0.010054,0.00185 0.00344,0.00159 0.00767,0.00688 l 0.2196043,0.2857502 q -7.938e-4,-0.00688 -0.00106,-0.013229 -2.645e-4,-0.00661 -2.645e-4,-0.0127 V 1.359573 h 0.044979 v 0.3791481 h -0.025929 q -0.00609,0 -0.010319,-0.00212 -0.00397,-0.00212 -0.00794,-0.00714 L 1.0264823,1.4439751 q 5.291e-4,0.00661 7.937e-4,0.012965 2.646e-4,0.00635 2.646e-4,0.011642 V 1.7387211 H 0.98256142 V 1.359573 h 0.0264584 z"
       id="path17471" />
    <path
       d="m 1.4812269,1.4664647 q 0.024077,0 0.04445,0.0082 0.020373,0.00794 0.03519,0.023283 0.014817,0.015081 0.023019,0.037571 0.00847,0.022225 0.00847,0.0508 0,0.011112 -0.00238,0.014817 -0.00238,0.0037 -0.009,0.0037 H 1.4026456 q 5.292e-4,0.0254 0.00688,0.044185 0.00635,0.018786 0.017462,0.031486 0.011113,0.012435 0.026458,0.018785 0.015346,0.00609 0.034396,0.00609 0.017727,0 0.030427,-0.00397 0.012965,-0.00423 0.022225,-0.009 0.00926,-0.00476 0.015346,-0.00873 0.00635,-0.00423 0.010848,-0.00423 0.00582,0 0.009,0.0045 l 0.013229,0.017198 q -0.00873,0.010583 -0.020902,0.018521 -0.012171,0.00767 -0.026194,0.0127 -0.013758,0.00503 -0.028575,0.00741 -0.014817,0.00265 -0.029369,0.00265 -0.027781,0 -0.051329,-0.00926 -0.023283,-0.00953 -0.040481,-0.027517 -0.016933,-0.018256 -0.026458,-0.044979 -0.00953,-0.026723 -0.00953,-0.061383 0,-0.028046 0.00847,-0.052388 0.00873,-0.024342 0.024871,-0.042069 0.01614,-0.017992 0.039423,-0.028046 0.023283,-0.010319 0.052388,-0.010319 z m 0.00106,0.03466 q -0.034131,0 -0.05371,0.019844 -0.019579,0.019579 -0.024342,0.054504 h 0.1457855 q 0,-0.016404 -0.0045,-0.029898 -0.0045,-0.013758 -0.013229,-0.023548 -0.00873,-0.010054 -0.021431,-0.015346 -0.012436,-0.00556 -0.028575,-0.00556 z"
       id="path17473" />
    <path
       d="M 1.6521147,1.8294733 V 1.470698 h 0.028046 q 0.010054,0 0.0127,0.00979 l 0.00397,0.03175 q 0.017198,-0.020902 0.039158,-0.033602 0.022225,-0.0127 0.051065,-0.0127 0.023019,0 0.041804,0.009 0.018785,0.00873 0.032015,0.026194 0.013229,0.017198 0.020373,0.042863 0.00714,0.025665 0.00714,0.059002 0,0.029633 -0.00794,0.055298 -0.00794,0.0254 -0.022754,0.044185 -0.014817,0.018521 -0.036513,0.029369 -0.021431,0.010583 -0.048419,0.010583 -0.024871,0 -0.042598,-0.0082 -0.017462,-0.0082 -0.030956,-0.023283 V 1.8294733 Z M 1.7714419,1.5040356 q -0.023019,0 -0.040481,0.010583 -0.017198,0.010583 -0.03175,0.029898 v 0.129646 q 0.012965,0.017463 0.02831,0.024606 0.01561,0.00714 0.03466,0.00714 0.037306,0 0.057415,-0.026723 0.020108,-0.026723 0.020108,-0.0762 0,-0.026194 -0.00476,-0.044979 -0.0045,-0.018785 -0.013229,-0.030692 -0.00873,-0.012171 -0.021431,-0.017727 -0.0127,-0.00556 -0.02884,-0.00556 z"
       id="path17475" />
    <path
       d="m 2.0258307,1.7429545 q -0.03175,0 -0.048948,-0.017727 -0.016933,-0.017727 -0.016933,-0.051065 V 1.510121 h -0.032279 q -0.00423,0 -0.00714,-0.00238 -0.00291,-0.00265 -0.00291,-0.00794 v -0.018785 l 0.043921,-0.00556 0.010848,-0.082815 q 5.292e-4,-0.00397 0.00344,-0.00635 0.00291,-0.00265 0.00741,-0.00265 h 0.023813 v 0.09234 h 0.076729 v 0.034131 h -0.076729 v 0.1608668 q 0,0.016933 0.0082,0.025135 0.0082,0.0082 0.021167,0.0082 0.00741,0 0.0127,-0.00185 0.00556,-0.00212 0.00953,-0.0045 0.00397,-0.00238 0.00661,-0.00423 0.00291,-0.00212 0.00503,-0.00212 0.0037,0 0.00661,0.0045 l 0.013758,0.02249 q -0.012171,0.011377 -0.029369,0.017992 -0.017198,0.00635 -0.035454,0.00635 z"
       id="path17477" />
    <path
       d="m 2.1827536,1.470698 v 0.170921 q 0,0.030427 0.014023,0.047096 0.014023,0.016669 0.042333,0.016669 0.020638,0 0.038894,-0.00979 0.018256,-0.00979 0.033602,-0.027252 V 1.470698 h 0.047096 v 0.2680231 h -0.028046 q -0.010054,0 -0.0127,-0.00979 l -0.0037,-0.02884 q -0.017463,0.019315 -0.039158,0.031221 -0.021696,0.011642 -0.049742,0.011642 -0.02196,0 -0.038894,-0.00714 -0.016669,-0.00741 -0.028046,-0.020638 -0.011377,-0.013229 -0.017198,-0.032015 -0.00556,-0.018785 -0.00556,-0.04154 V 1.470698 Z"
       id="path17479" />
    <path
       d="M 2.4365635,1.7387211 V 1.470698 h 0.028046 q 0.010054,0 0.0127,0.00979 l 0.0037,0.029104 q 0.017463,-0.019315 0.038894,-0.031221 0.021696,-0.011906 0.050006,-0.011906 0.02196,0 0.038629,0.00741 0.016933,0.00714 0.028046,0.020637 0.011377,0.013229 0.017198,0.032015 0.00582,0.018785 0.00582,0.04154 V 1.7387211 H 2.6125115 V 1.5680648 q 0,-0.030427 -0.014023,-0.047096 -0.013758,-0.016933 -0.042333,-0.016933 -0.020902,0 -0.039158,0.010054 -0.017992,0.010054 -0.033338,0.027252 v 0.1973793 z"
       id="path17481" />
    <path
       d="m 2.8372174,1.4664647 q 0.024077,0 0.04445,0.0082 0.020373,0.00794 0.03519,0.023283 0.014817,0.015081 0.023019,0.037571 0.00847,0.022225 0.00847,0.0508 0,0.011112 -0.00238,0.014817 -0.00238,0.0037 -0.009,0.0037 H 2.7586361 q 5.291e-4,0.0254 0.00688,0.044185 0.00635,0.018786 0.017463,0.031486 0.011113,0.012435 0.026458,0.018785 0.015346,0.00609 0.034396,0.00609 0.017727,0 0.030427,-0.00397 0.012965,-0.00423 0.022225,-0.009 0.00926,-0.00476 0.015346,-0.00873 0.00635,-0.00423 0.010848,-0.00423 0.00582,0 0.009,0.0045 l 0.013229,0.017198 q -0.00873,0.010583 -0.020902,0.018521 -0.012171,0.00767 -0.026194,0.0127 -0.013758,0.00503 -0.028575,0.00741 -0.014817,0.00265 -0.029369,0.00265 -0.027781,0 -0.051329,-0.00926 -0.023283,-0.00953 -0.040481,-0.027517 -0.016933,-0.018256 -0.026458,-0.044979 -0.00953,-0.026723 -0.00953,-0.061383 0,-0.028046 0.00847,-0.052388 0.00873,-0.024342 0.024871,-0.042069 0.01614,-0.017992 0.039423,-0.028046 0.023283,-0.010319 0.052388,-0.010319 z m 0.00106,0.03466 q -0.034131,0 -0.05371,0.019844 -0.019579,0.019579 -0.024342,0.054504 h 0.1457855 q 0,-0.016404 -0.0045,-0.029898 -0.0045,-0.013758 -0.013229,-0.023548 -0.00873,-0.010054 -0.021431,-0.015346 -0.012435,-0.00556 -0.028575,-0.00556 z"
       id="path17483" />
  </g>
  <g
     aria-label="planets"
     id="text12199"
     style="font-size:0.529167px;line-height:1.25;font-family:'DIN Alternate';-inkscape-font-specification:'DIN Alternate';word-spacing:0px;stroke-width:0.0264583">
    <path
       d="M 30.238334,2.2633901 V 1.9046149 h 0.02805 q 0.01005,0 0.0127,0.00979 l 0.004,0.03175 q 0.0172,-0.020902 0.03916,-0.033602 0.02223,-0.0127 0.05107,-0.0127 0.02302,0 0.0418,0.009 0.01879,0.00873 0.03202,0.026194 0.01323,0.017198 0.02037,0.042863 0.0071,0.025665 0.0071,0.059002 0,0.029633 -0.0079,0.055298 -0.0079,0.0254 -0.02275,0.044185 -0.01482,0.018521 -0.03651,0.029369 -0.02143,0.010583 -0.04842,0.010583 -0.02487,0 -0.0426,-0.0082 -0.01746,-0.0082 -0.03096,-0.023283 v 0.1185334 z m 0.119327,-0.3254377 q -0.02302,0 -0.04048,0.010583 -0.0172,0.010583 -0.03175,0.029898 v 0.1296459 q 0.01296,0.017463 0.02831,0.024606 0.01561,0.00714 0.03466,0.00714 0.03731,0 0.05742,-0.026723 0.02011,-0.026723 0.02011,-0.0762 0,-0.026194 -0.0048,-0.044979 -0.0045,-0.018785 -0.01323,-0.030692 -0.0087,-0.012171 -0.02143,-0.017727 -0.0127,-0.00556 -0.02884,-0.00556 z"
       style="font-family:Lato;-inkscape-font-specification:Lato;fill:#ffffff"
       id="path17404" />
    <path
       d="m 30.583211,1.7829064 v 0.3897315 h -0.0471 V 1.7829064 Z"
       style="font-family:Lato;-inkscape-font-specification:Lato;fill:#ffffff"
       id="path17406" />
    <path
       d="m 30.863066,2.1726379 h -0.0209 q -0.0069,0 -0.01111,-0.00212 -0.0042,-0.00212 -0.0056,-0.009 l -0.0053,-0.024871 q -0.01058,0.00953 -0.02064,0.017198 -0.01005,0.00741 -0.02117,0.0127 -0.01111,0.00503 -0.02381,0.00767 -0.01243,0.00265 -0.02778,0.00265 -0.01561,0 -0.02937,-0.00423 -0.01349,-0.0045 -0.02355,-0.013229 -0.01005,-0.00873 -0.01614,-0.021961 -0.0058,-0.013494 -0.0058,-0.03175 0,-0.015875 0.0087,-0.030427 0.0087,-0.014817 0.02805,-0.026194 0.01958,-0.011377 0.05107,-0.018521 0.03148,-0.00741 0.07699,-0.00847 v -0.020902 q 0,-0.031221 -0.01349,-0.047096 -0.01323,-0.01614 -0.03942,-0.01614 -0.0172,0 -0.0291,0.0045 -0.01164,0.00423 -0.02037,0.00979 -0.0085,0.00529 -0.01482,0.00979 -0.0061,0.00423 -0.01217,0.00423 -0.0048,0 -0.0085,-0.00238 -0.0034,-0.00265 -0.0056,-0.00635 l -0.0085,-0.015081 q 0.02223,-0.021431 0.04789,-0.032015 0.02567,-0.010583 0.05689,-0.010583 0.02249,0 0.03995,0.00741 0.01746,0.00741 0.02937,0.020638 0.01191,0.013229 0.01799,0.032015 0.0061,0.018785 0.0061,0.041275 z m -0.122238,-0.02884 q 0.01243,0 0.02275,-0.00238 0.01032,-0.00265 0.01931,-0.00714 0.0093,-0.00476 0.01746,-0.011377 0.0085,-0.00661 0.0164,-0.015081 v -0.055827 q -0.03254,0.00106 -0.0553,0.00529 -0.02275,0.00397 -0.03704,0.010583 -0.01429,0.00661 -0.0209,0.01561 -0.0064,0.009 -0.0064,0.020108 0,0.010583 0.0034,0.018256 0.0034,0.00767 0.0093,0.0127 0.0058,0.00476 0.01376,0.00714 0.0079,0.00212 0.0172,0.00212 z"
       style="font-family:Lato;-inkscape-font-specification:Lato;fill:#ffffff"
       id="path17408" />
    <path
       d="m 30.934933,2.1726379 v -0.268023 h 0.02805 q 0.01005,0 0.0127,0.00979 l 0.0037,0.029104 q 0.01746,-0.019315 0.03889,-0.031221 0.0217,-0.011906 0.05001,-0.011906 0.02196,0 0.03863,0.00741 0.01693,0.00714 0.02805,0.020637 0.01138,0.013229 0.0172,0.032015 0.0058,0.018785 0.0058,0.04154 v 0.1706563 h -0.0471 V 2.0019816 q 0,-0.030427 -0.01402,-0.047096 -0.01376,-0.016933 -0.04233,-0.016933 -0.0209,0 -0.03916,0.010054 -0.01799,0.010054 -0.03334,0.027252 v 0.1973793 z"
       style="font-family:Lato;-inkscape-font-specification:Lato;fill:#ffffff"
       id="path17410" />
    <path
       d="m 31.335587,1.9003815 q 0.02408,0 0.04445,0.0082 0.02037,0.00794 0.03519,0.023283 0.01482,0.015081 0.02302,0.037571 0.0085,0.022225 0.0085,0.0508 0,0.011113 -0.0024,0.014817 -0.0024,0.0037 -0.009,0.0037 h -0.178329 q 5.29e-4,0.0254 0.0069,0.044185 0.0064,0.018785 0.01746,0.031485 0.01111,0.012435 0.02646,0.018785 0.01534,0.00609 0.03439,0.00609 0.01773,0 0.03043,-0.00397 0.01296,-0.00423 0.02222,-0.009 0.0093,-0.00476 0.01534,-0.00873 0.0064,-0.00423 0.01085,-0.00423 0.0058,0 0.009,0.0045 l 0.01323,0.017198 q -0.0087,0.010583 -0.0209,0.018521 -0.01217,0.00767 -0.02619,0.0127 -0.01376,0.00503 -0.02858,0.00741 -0.01482,0.00265 -0.02937,0.00265 -0.02778,0 -0.05133,-0.00926 -0.02328,-0.00953 -0.04048,-0.027517 -0.01693,-0.018256 -0.02646,-0.044979 -0.0095,-0.026723 -0.0095,-0.061383 0,-0.028046 0.0085,-0.052388 0.0087,-0.024342 0.02487,-0.042069 0.01614,-0.017992 0.03942,-0.028046 0.02328,-0.010319 0.05239,-0.010319 z m 0.0011,0.03466 q -0.03413,0 -0.05371,0.019844 -0.01958,0.019579 -0.02434,0.054504 h 0.145786 q 0,-0.016404 -0.0045,-0.029898 -0.0045,-0.013758 -0.01323,-0.023548 -0.0087,-0.010054 -0.02143,-0.015346 -0.01243,-0.00556 -0.02858,-0.00556 z"
       style="font-family:Lato;-inkscape-font-specification:Lato;fill:#ffffff"
       id="path17412" />
    <path
       d="m 31.587702,2.1768713 q -0.03175,0 -0.04895,-0.017727 -0.01693,-0.017727 -0.01693,-0.051065 V 1.9440378 h -0.03228 q -0.0042,0 -0.0071,-0.00238 -0.0029,-0.00265 -0.0029,-0.00794 v -0.018785 l 0.04392,-0.00556 0.01085,-0.082815 q 5.29e-4,-0.00397 0.0034,-0.00635 0.0029,-0.00265 0.0074,-0.00265 h 0.02381 v 0.09234 h 0.07673 v 0.034131 h -0.07673 v 0.1608668 q 0,0.016933 0.0082,0.025135 0.0082,0.0082 0.02117,0.0082 0.0074,0 0.0127,-0.00185 0.0056,-0.00212 0.0095,-0.0045 0.004,-0.00238 0.0066,-0.00423 0.0029,-0.00212 0.005,-0.00212 0.0037,0 0.0066,0.0045 l 0.01376,0.02249 q -0.01217,0.011377 -0.02937,0.017992 -0.0172,0.00635 -0.03545,0.00635 z"
       style="font-family:Lato;-inkscape-font-specification:Lato;fill:#ffffff"
       id="path17414" />
    <path
       d="m 31.857337,1.9488003 q -0.0032,0.00582 -0.0098,0.00582 -0.004,0 -0.009,-0.00291 -0.005,-0.00291 -0.01244,-0.00635 -0.0071,-0.0037 -0.0172,-0.00661 -0.01006,-0.00317 -0.02381,-0.00317 -0.01191,0 -0.02143,0.00317 -0.0095,0.00291 -0.0164,0.0082 -0.0066,0.00529 -0.01032,0.012435 -0.0034,0.00688 -0.0034,0.015081 0,0.010319 0.0058,0.017198 0.0061,0.00688 0.01588,0.011906 0.0098,0.00503 0.02222,0.009 0.01244,0.0037 0.0254,0.0082 0.01323,0.00423 0.02567,0.00953 0.01243,0.00529 0.02222,0.013229 0.0098,0.00794 0.01561,0.019579 0.0061,0.011377 0.0061,0.027517 0,0.018521 -0.0066,0.034396 -0.0066,0.01561 -0.01958,0.027252 -0.01297,0.011377 -0.03175,0.017992 -0.01879,0.00661 -0.04339,0.00661 -0.02805,0 -0.0508,-0.009 -0.02275,-0.00926 -0.03863,-0.023548 l 0.01111,-0.017992 q 0.0021,-0.00344 0.005,-0.00529 0.0029,-0.00185 0.0077,-0.00185 0.0048,0 0.01005,0.0037 0.0053,0.0037 0.0127,0.0082 0.0077,0.0045 0.01826,0.0082 0.01085,0.0037 0.02699,0.0037 0.01376,0 0.02408,-0.00344 0.01032,-0.0037 0.0172,-0.00979 0.0069,-0.00609 0.01006,-0.014023 0.0034,-0.00794 0.0034,-0.016933 0,-0.011112 -0.0061,-0.018256 -0.0058,-0.00741 -0.01561,-0.012435 -0.0098,-0.00529 -0.02249,-0.009 -0.01244,-0.00397 -0.02567,-0.0082 -0.01296,-0.00423 -0.02567,-0.00953 -0.01243,-0.00556 -0.02222,-0.013758 -0.0098,-0.0082 -0.01588,-0.020108 -0.0058,-0.012171 -0.0058,-0.029369 0,-0.015346 0.0064,-0.029369 0.0064,-0.014288 0.01852,-0.024871 0.01217,-0.010848 0.0299,-0.017198 0.01773,-0.00635 0.04048,-0.00635 0.02646,0 0.04736,0.00847 0.02117,0.0082 0.03651,0.022754 z"
       style="font-family:Lato;-inkscape-font-specification:Lato;fill:#ffffff"
       id="path17416" />
  </g>
  <rect
     style="fill:#dca978;fill-opacity:1;stroke:#e6c3a0;stroke-width:0.04;stroke-linecap:round;stroke-linejoin:round;stroke-opacity:1"
     id="rect16818"
     width="0.83524412"
     height="0.0097121401"
     x="21.999378"
     y="0.99514395" />
  <g
     aria-label="Sun"
     id="text19376"
     style="font-size:0.529167px;line-height:1.25;font-family:'DIN Alternate';-inkscape-font-specification:'DIN Alternate';word-spacing:0px;stroke-width:0.0264583">
    <path
       d="m 32.230591,0.45069485 q -0.0024,0.003969 -0.005,0.006085 -0.0026,0.001852 -0.0069,0.001852 -0.0045,0 -0.01058,-0.004498 -0.0058,-0.004498 -0.01508,-0.00979 -0.009,-0.005556 -0.02196,-0.0100542 -0.0127,-0.004498 -0.03096,-0.004498 -0.0172,0 -0.03043,0.004763 -0.01323,0.004498 -0.02222,0.0124354 -0.0087,0.007938 -0.01323,0.0187854 -0.0045,0.0105833 -0.0045,0.0230188 0,0.015875 0.0077,0.0264583 0.0079,0.0103188 0.02064,0.0177271 0.01297,0.007408 0.0291,0.0129646 0.0164,0.005292 0.03334,0.0111125 0.0172,0.005821 0.03334,0.0132292 0.0164,0.007144 0.0291,0.0182563 0.01296,0.0111125 0.02064,0.0272521 0.0079,0.0161396 0.0079,0.0396875 0,0.0248709 -0.0085,0.0468313 -0.0085,0.0216958 -0.02487,0.0378354 -0.01614,0.0161396 -0.03995,0.0254 -0.02355,0.00926 -0.05371,0.00926 -0.03678,0 -0.06721,-0.0132292 -0.03016,-0.0134938 -0.05159,-0.0362479 l 0.01482,-0.0243417 q 0.0021,-0.00291 0.005,-0.004763 0.0032,-0.002117 0.0069,-0.002117 0.0056,0 0.0127,0.006085 0.0071,0.005821 0.01773,0.0129646 0.01085,0.007144 0.02593,0.0132292 0.01535,0.005821 0.03731,0.005821 0.01826,0 0.03254,-0.005027 0.01429,-0.005027 0.02408,-0.0140229 0.01005,-0.00926 0.01535,-0.0219604 0.0053,-0.0127 0.0053,-0.0283104 0,-0.0171979 -0.0079,-0.0280459 -0.0077,-0.0111125 -0.02037,-0.0185208 -0.0127,-0.007408 -0.0291,-0.0124354 -0.01614,-0.005292 -0.03334,-0.0105833 -0.01693,-0.005556 -0.03334,-0.0127 -0.01614,-0.007144 -0.02884,-0.0185209 -0.0127,-0.0113771 -0.02064,-0.0283104 -0.0077,-0.0171979 -0.0077,-0.0423334 0,-0.0201083 0.0077,-0.0388938 0.0079,-0.0187854 0.02275,-0.0333375 0.01482,-0.0145521 0.03651,-0.0232833 0.02196,-0.008731 0.05027,-0.008731 0.03175,0 0.05794,0.0100542 0.02619,0.0100542 0.04577,0.0291042 z"
       style="font-family:Lato;-inkscape-font-specification:Lato;fill:#ffffff"
       id="path21894" />
    <path
       d="m 32.34981,0.50255321 v 0.17092094 q 0,0.0304271 0.01402,0.0470959 0.01402,0.0166688 0.04233,0.0166688 0.02064,0 0.03889,-0.00979 0.01826,-0.00979 0.0336,-0.0272521 V 0.50255321 h 0.0471 V 0.7705763 h -0.02805 q -0.01005,0 -0.0127,-0.00979 l -0.0037,-0.0288396 q -0.01746,0.0193146 -0.03916,0.0312208 -0.0217,0.0116417 -0.04974,0.0116417 -0.02196,0 -0.03889,-0.007144 -0.01667,-0.007408 -0.02804,-0.0206375 -0.01138,-0.0132292 -0.0172,-0.0320146 -0.0056,-0.0187854 -0.0056,-0.0415396 V 0.50255321 Z"
       style="font-family:Lato;-inkscape-font-specification:Lato;fill:#ffffff"
       id="path21896" />
    <path
       d="M 32.60362,0.7705763 V 0.50255321 h 0.02805 q 0.01005,0 0.0127,0.00979 l 0.0037,0.0291042 q 0.01746,-0.0193146 0.03889,-0.0312208 0.0217,-0.0119063 0.05001,-0.0119063 0.02196,0 0.03863,0.007408 0.01693,0.007144 0.02805,0.0206375 0.01138,0.0132292 0.0172,0.0320146 0.0058,0.0187854 0.0058,0.0415396 V 0.7705763 h -0.0471 V 0.59991994 q 0,-0.0304271 -0.01402,-0.0470959 -0.01376,-0.0169333 -0.04233,-0.0169333 -0.0209,0 -0.03916,0.0100542 -0.01799,0.0100542 -0.03334,0.0272521 V 0.7705763 Z"
       style="font-family:Lato;-inkscape-font-specification:Lato;fill:#ffffff"
       id="path21898" />
  </g>
</svg>
